<?xml version="1.0" encoding="UTF-8" standalone="no"?>
<!DOCTYPE svg PUBLIC "-//W3C//DTD SVG 1.1//EN" "http://www.w3.org/Graphics/SVG/1.1/DTD/svg11.dtd">
<svg width="100%" height="100%" viewBox="0 0 1024 1024" version="1.1" xmlns="http://www.w3.org/2000/svg" xmlns:xlink="http://www.w3.org/1999/xlink" xml:space="preserve" xmlns:serif="http://www.serif.com/" style="fill-rule:evenodd;clip-rule:evenodd;stroke-linecap:round;stroke-linejoin:round;">
    <g transform="matrix(10.682553,0,0,10.682553,-22.127658,-22.127658)">
        <path d="M100,2.247L100,97.753C100,98.993 98.993,100 97.753,100L2.247,100C1.007,100 0,98.993 0,97.753L0,2.247C0,1.007 1.007,0 2.247,0L97.753,0C98.993,0 100,1.007 100,2.247Z" style="fill:url(#_Linear1);"/>
    </g>
    <g transform="matrix(10.24,0,0,10.24,0,0)">
        <path d="M29,34L71,34" style="fill:none;fill-rule:nonzero;stroke:url(#_Linear2);stroke-width:11px;"/>
        <path d="M50,34L50,63L62,75" style="fill:none;fill-rule:nonzero;stroke:url(#_Linear3);stroke-width:11px;"/>
    </g>
    <defs>
        <linearGradient id="_Linear1" x1="0" y1="0" x2="1" y2="0" gradientUnits="userSpaceOnUse" gradientTransform="matrix(90,100,-100,90,0,0)"><stop offset="0" style="stop-color:rgb(32,33,40);stop-opacity:1"/><stop offset="1" style="stop-color:rgb(18,18,23);stop-opacity:1"/></linearGradient>
        <linearGradient id="_Linear2" x1="0" y1="0" x2="1" y2="0" gradientUnits="userSpaceOnUse" gradientTransform="matrix(60,65,-65,60,20,20)"><stop offset="0" style="stop-color:rgb(138,144,248);stop-opacity:1"/><stop offset="1" style="stop-color:rgb(86,90,224);stop-opacity:1"/></linearGradient>
        <linearGradient id="_Linear3" x1="0" y1="0" x2="1" y2="0" gradientUnits="userSpaceOnUse" gradientTransform="matrix(60,65,-65,60,20,20)"><stop offset="0" style="stop-color:rgb(138,144,248);stop-opacity:1"/><stop offset="1" style="stop-color:rgb(86,90,224);stop-opacity:1"/></linearGradient>
    </defs>
</svg>
